<svg width="64" height="64" viewBox="0 0 64 64" fill="none" xmlns="http://www.w3.org/2000/svg">
<path d="M37.3333 35.0476C36.1701 35.0476 35.0504 35.2305 34.0023 35.5686C31.7219 30.3342 26.4304 26.6667 20.2667 26.6667C18.7871 26.6667 17.3577 26.878 16.0082 27.2716C16.0027 27.1341 16 26.996 16 26.8571C16 21.0713 20.7756 16.381 26.6667 16.381C27.8299 16.381 28.9496 16.5638 29.9977 16.9019C32.2781 11.6676 37.5696 8 43.7333 8C51.9808 8 58.6667 14.5665 58.6667 22.6667C58.6667 30.6852 52.1148 37.2008 43.9822 37.3313C42.1588 35.902 39.8477 35.0476 37.3333 35.0476Z" fill="#0196D8"/>
<path opacity="0.4" d="M5.33337 41.3333C5.33337 49.4335 12.0193 56 20.2667 56H37.3334C43.2244 56 48 51.3096 48 45.5238C48 42.2074 46.431 39.2509 43.9822 37.3313C42.1588 35.902 39.8477 35.0476 37.3334 35.0476C36.1701 35.0476 35.0504 35.2305 34.0023 35.5685C31.7219 30.3342 26.4304 26.6666 20.2667 26.6666C18.7871 26.6666 17.3577 26.878 16.0082 27.2716C9.83552 29.0721 5.33337 34.6863 5.33337 41.3333Z" fill="#0196D8"/>
</svg>
